<?xml version="1.0" standalone="no"?>
<!DOCTYPE svg PUBLIC "-//W3C//DTD SVG 20010904//EN"
 "http://www.w3.org/TR/2001/REC-SVG-20010904/DTD/svg10.dtd">
<svg version="1.0" xmlns="http://www.w3.org/2000/svg"
 width="2976.000000pt" height="1027.000000pt" viewBox="0 0 2976.000000 1027.000000"
 preserveAspectRatio="xMidYMid meet">

<g transform="translate(0.000000,1027.000000) scale(0.100000,-0.100000)"
fill="#000000" stroke="none">
<path d="M16880 9841 c-173 -48 -323 -90 -333 -94 -15 -6 -17 -17 -15 -69 l3
-63 208 -3 207 -2 0 -556 c0 -453 -2 -554 -13 -546 -29 25 -183 83 -260 98
-113 23 -295 15 -432 -20 -206 -53 -432 -193 -570 -354 -298 -345 -381 -828
-221 -1277 148 -415 498 -669 879 -641 197 15 331 84 565 292 l52 47 0 -162 0
-161 58 0 c39 0 160 28 392 89 l335 88 3 66 3 67 -208 2 -208 3 -3 1643 -2
1642 -63 -1 c-44 -1 -150 -26 -377 -88z m-134 -1446 c66 -19 112 -51 146 -100
57 -82 58 -101 58 -780 l0 -620 -82 -65 c-209 -167 -263 -192 -414 -198 -196
-7 -317 37 -440 163 -148 150 -224 388 -224 695 1 197 35 352 112 510 45 91
64 117 143 196 123 125 244 187 410 214 78 12 227 5 291 -15z"/>
<path d="M3275 9555 c6 -3 98 -31 205 -64 382 -118 704 -244 1050 -413 285
-138 429 -220 660 -374 772 -513 1218 -1124 1316 -1804 23 -163 15 -524 -16
-699 -183 -1037 -972 -1911 -2375 -2632 -861 -443 -1979 -823 -3111 -1058
l-139 -29 3463 -1 3462 -1 0 3540 0 3540 -2262 -1 c-1245 0 -2258 -2 -2253 -4z"/>
<path d="M8502 9473 l3 -88 183 -3 182 -2 -2 -1413 -3 -1412 -183 -3 -183 -2
3 -88 3 -87 765 -3 c486 -2 806 1 878 8 232 22 412 107 559 264 80 84 134 177
174 296 28 82 33 113 37 226 10 272 -70 474 -256 645 -125 115 -270 186 -453
221 l-116 22 90 23 c229 58 418 207 516 407 209 425 -76 960 -564 1061 -63 13
-191 15 -855 15 l-781 0 3 -87z m1431 -148 c87 -23 152 -60 215 -123 65 -65
110 -144 143 -252 30 -97 33 -289 5 -389 -57 -207 -199 -358 -381 -406 -46
-12 -120 -15 -342 -15 l-283 0 0 600 0 600 293 0 c227 0 306 -3 350 -15z m34
-1421 c310 -64 513 -331 513 -673 -1 -203 -53 -347 -169 -461 -74 -74 -151
-118 -261 -151 -70 -21 -99 -23 -417 -26 l-343 -5 0 666 0 666 300 0 c235 0
318 -3 377 -16z"/>
<path d="M1994 9467 c86 -49 306 -199 386 -264 110 -88 297 -275 383 -383 305
-381 516 -851 601 -1340 l22 -125 325 -46 c509 -73 925 -150 1265 -233 76 -19
141 -32 143 -30 8 8 -31 157 -75 286 -134 393 -335 710 -648 1024 -472 472
-1122 817 -1941 1029 -133 34 -465 105 -488 105 -7 -1 5 -11 27 -23z"/>
<path d="M1307 9282 c115 -335 208 -748 263 -1172 20 -159 50 -498 50 -575 l0
-43 73 -6 c39 -3 162 -11 272 -16 265 -14 713 -47 900 -65 207 -21 196 -22
189 18 -18 99 -72 308 -110 419 -258 754 -812 1314 -1509 1522 -60 18 -124 36
-141 39 l-30 6 43 -127z"/>
<path d="M4551 8639 c177 -175 298 -312 401 -456 249 -346 417 -735 488 -1127
11 -60 21 -111 23 -112 2 -2 57 -22 123 -44 217 -75 425 -168 560 -251 l66
-40 -6 78 c-23 250 -116 547 -242 766 -289 504 -764 925 -1459 1292 l-130 69
176 -175z"/>
<path d="M12607 8606 c-112 -41 -254 -170 -442 -405 l-100 -125 -3 267 -2 267
-48 0 c-27 0 -187 -39 -387 -93 l-340 -92 -3 -68 -3 -67 211 0 210 0 -2 -867
-3 -868 -182 -3 -183 -2 0 -90 0 -90 595 0 595 0 0 90 0 90 -227 2 -228 3 -3
639 -2 639 37 46 c95 118 242 277 290 314 94 71 161 61 272 -39 51 -46 53 -47
70 -28 46 49 261 315 260 321 -1 15 -158 144 -193 158 -44 18 -138 19 -189 1z"/>
<path d="M13970 8609 c-264 -41 -511 -201 -667 -434 -135 -202 -203 -442 -203
-719 0 -395 138 -716 395 -923 196 -157 452 -235 722 -219 129 7 184 17 303
53 92 29 419 188 427 208 5 14 -73 175 -85 175 -4 0 -52 -27 -107 -60 -188
-113 -313 -153 -475 -153 -129 0 -213 19 -322 74 -67 33 -101 60 -178 138 -81
81 -104 112 -147 196 -86 169 -126 324 -139 548 l-7 117 762 0 761 0 0 130 c0
278 -83 487 -259 653 -104 98 -231 165 -382 202 -79 19 -311 27 -399 14z m273
-204 c92 -19 175 -66 242 -136 92 -96 139 -233 133 -388 l-3 -76 -557 -3
c-500 -2 -558 -1 -558 13 0 48 37 172 76 252 89 186 239 301 439 338 93 17
146 18 228 0z"/>
<path d="M18724 8606 c-349 -57 -565 -237 -567 -471 0 -67 21 -135 42 -135 4
0 71 18 147 41 76 22 169 49 206 60 l67 20 3 117 3 117 75 32 c41 18 108 37
149 44 166 25 312 -44 378 -179 l28 -57 0 -319 0 -319 -435 -99 c-302 -69
-454 -109 -496 -128 -202 -97 -313 -328 -270 -567 51 -287 300 -468 618 -449
195 12 325 74 487 234 58 56 105 102 107 102 1 0 4 -35 6 -77 9 -152 95 -243
229 -243 44 0 174 34 359 93 l135 43 3 67 3 67 -188 2 -188 3 -5 805 -5 805
-38 79 c-69 144 -207 246 -402 297 -103 26 -334 34 -451 15z m534 -1503 l-3
-257 -90 -73 c-51 -42 -130 -94 -184 -121 l-94 -47 -111 0 c-92 0 -119 4 -157
21 -102 48 -161 130 -179 251 -8 59 -14 293 -7 293 1 0 180 43 397 94 217 52
403 94 413 95 16 1 17 -16 15 -256z"/>
<path d="M1630 7128 c0 -121 -20 -515 -35 -698 -30 -357 -81 -757 -145 -1125
-17 -94 -30 -175 -30 -179 0 -19 651 11 1050 49 85 8 185 18 222 21 l67 7 49
126 c143 362 235 724 278 1096 18 157 26 626 11 641 -13 14 -647 72 -1062 98
-132 9 -277 18 -322 21 l-83 6 0 -63z"/>
<path d="M3420 6866 c0 -466 -82 -952 -241 -1430 -33 -98 -58 -181 -55 -183 7
-8 334 38 666 93 317 52 699 127 939 184 233 56 224 53 240 84 66 136 156 453
186 651 19 131 31 424 17 444 -19 26 -520 136 -957 210 -250 42 -729 111 -771
111 l-24 0 0 -164z"/>
<path d="M5477 6458 c-8 -232 -49 -477 -113 -678 -13 -41 -24 -78 -24 -82 0
-4 60 13 133 38 460 158 697 315 697 462 0 127 -214 272 -599 403 -47 16 -86
29 -86 29 -1 0 -5 -78 -8 -172z"/>
<path d="M15203 5790 c-217 -51 -260 -353 -66 -467 42 -24 58 -28 128 -28 70
0 86 4 128 28 154 91 168 318 26 423 -60 44 -144 61 -216 44z"/>
<path d="M24657 5786 c-134 -37 -208 -184 -165 -330 16 -55 99 -138 154 -154
52 -15 115 -15 166 0 51 15 126 82 149 133 26 57 25 165 -2 221 -52 108 -182
164 -302 130z"/>
<path d="M8507 5663 c-4 -3 -7 -44 -7 -89 l0 -84 183 -2 182 -3 5 -1085 5
-1085 23 -80 c112 -384 407 -666 807 -770 147 -38 252 -48 435 -42 193 7 321
32 480 96 343 138 573 377 663 692 53 183 51 149 55 1252 l3 1027 179 0 180 0
0 90 0 90 -485 0 -485 0 0 -90 0 -90 180 0 181 0 -3 -1007 -3 -1008 -27 -99
c-95 -344 -317 -567 -648 -652 -104 -26 -384 -27 -480 0 -159 44 -277 114
-386 227 -113 118 -179 247 -227 439 -20 83 -21 109 -24 1093 l-4 1007 181 0
180 0 0 90 0 90 -568 0 c-313 0 -572 -3 -575 -7z"/>
<path d="M5895 5589 c-128 -62 -357 -149 -535 -204 l-165 -51 -48 -95 c-236
-461 -609 -915 -1059 -1289 -176 -147 -178 -145 32 -27 775 435 1367 940 1715
1462 68 103 153 247 143 244 -2 0 -39 -18 -83 -40z"/>
<path d="M25800 4966 l0 -334 -210 -52 -210 -52 0 -64 0 -64 210 0 209 0 3
-807 c3 -806 3 -808 25 -874 64 -187 205 -279 426 -279 187 1 236 23 511 225
19 14 18 16 -19 77 -21 35 -39 64 -40 66 -1 1 -51 -21 -110 -50 -104 -50 -112
-53 -204 -56 -85 -3 -101 -1 -141 20 -31 16 -53 37 -70 68 l-25 45 -3 783 -3
782 301 0 300 0 0 110 0 110 -300 0 -300 0 0 340 0 340 -175 0 -175 0 0 -334z"/>
<path d="M4710 5209 c-191 -47 -747 -147 -1105 -199 -186 -27 -595 -80 -616
-80 -5 0 -44 -71 -88 -157 -144 -285 -327 -574 -509 -803 -295 -371 -678 -725
-1027 -949 -44 -28 -72 -51 -63 -51 40 0 307 54 478 96 716 177 1373 505 1970
982 187 150 542 503 684 682 103 129 252 341 310 443 30 50 28 52 -34 36z"/>
<path d="M2435 4869 c-154 -16 -582 -49 -785 -59 -317 -17 -307 -15 -316 -53
-12 -58 -111 -399 -159 -547 -116 -362 -278 -792 -404 -1069 -33 -74 -59 -136
-58 -137 5 -5 213 113 320 180 641 403 1127 923 1542 1649 l27 47 -44 -1 c-23
-1 -79 -5 -123 -10z"/>
<path d="M23575 4718 c-2 -7 -8 -42 -14 -77 -6 -35 -12 -66 -15 -68 -2 -2 -32
14 -66 36 -124 80 -244 111 -438 111 -266 0 -456 -70 -599 -223 -101 -109
-153 -245 -153 -407 0 -311 159 -475 650 -670 457 -182 596 -284 616 -453 10
-82 -15 -153 -77 -221 -182 -200 -605 -191 -834 17 -85 77 -114 139 -122 262
l-6 95 -109 0 -108 0 0 -340 0 -340 100 0 100 0 0 80 0 80 48 -35 c66 -47 161
-90 257 -117 69 -18 107 -22 275 -22 175 -1 203 1 275 22 224 65 392 222 455
427 30 96 37 239 16 335 -50 236 -191 349 -681 549 -418 171 -524 239 -540
346 -21 136 14 256 96 329 176 160 540 134 708 -50 77 -84 98 -175 67 -292
l-13 -52 103 0 102 0 6 28 c12 57 106 632 106 646 0 13 -16 16 -100 16 -72 0
-102 -4 -105 -12z"/>
<path d="M13251 4700 c-173 -46 -282 -119 -503 -342 l-168 -169 0 261 0 260
-52 0 c-36 1 -163 -29 -395 -91 l-343 -93 0 -63 0 -63 210 0 210 0 0 -870 0
-870 -180 0 -180 0 0 -90 0 -90 545 0 545 0 0 90 0 90 -180 0 -180 0 0 628 0
627 97 110 c138 157 318 333 387 379 116 77 232 101 344 72 114 -29 184 -95
231 -215 l26 -66 3 -767 3 -768 -181 0 -180 0 0 -90 0 -90 545 0 545 0 0 90 0
90 -180 0 -179 0 -4 793 c-3 711 -5 799 -20 856 -56 207 -192 345 -392 396
-86 22 -280 19 -374 -5z"/>
<path d="M18917 4704 c-261 -58 -477 -205 -623 -425 -140 -211 -204 -437 -204
-725 0 -162 19 -289 61 -416 126 -381 404 -631 782 -703 102 -19 319 -19 429
0 143 25 309 92 526 212 l62 35 -47 86 c-25 48 -47 88 -48 89 -1 2 -49 -26
-108 -61 -191 -115 -318 -156 -483 -156 -442 -1 -764 397 -776 960 l-3 115
759 3 758 2 -5 158 c-6 186 -20 247 -87 387 -85 175 -198 287 -375 370 -136
64 -195 77 -385 81 -122 3 -183 0 -233 -12z m353 -211 c83 -22 146 -61 205
-125 92 -99 134 -220 135 -385 l0 -83 -560 0 c-537 0 -560 1 -560 18 0 45 43
184 81 261 80 162 246 290 414 320 125 22 188 21 285 -6z"/>
<path d="M21627 4705 c-103 -36 -224 -147 -416 -383 l-116 -142 -3 265 -2 265
-52 0 c-34 0 -168 -31 -390 -91 l-338 -92 0 -63 0 -64 210 0 210 0 0 -870 0
-870 -185 0 -185 0 0 -90 0 -90 600 0 600 0 0 90 0 90 -235 0 -235 0 0 638 0
638 62 75 c181 217 278 309 348 330 35 11 44 9 92 -14 29 -15 76 -46 104 -71
l51 -45 132 160 c72 87 134 165 137 172 5 14 -108 120 -166 156 -28 16 -51 21
-110 21 -41 -1 -92 -7 -113 -15z"/>
<path d="M15013 4617 l-333 -91 0 -63 0 -63 210 0 210 0 0 -870 0 -870 -180 0
-180 0 0 -90 0 -90 545 0 545 0 0 90 0 90 -180 0 -180 0 0 1025 0 1025 -62 -1
c-46 0 -152 -25 -395 -92z"/>
<path d="M24565 4640 c-137 -37 -287 -78 -332 -90 l-83 -22 0 -64 0 -64 208
-2 207 -3 3 -867 2 -868 -185 0 -185 0 0 -90 0 -90 550 0 550 0 0 90 0 90
-185 0 -185 0 0 1025 0 1025 -57 -1 c-39 0 -140 -23 -308 -69z"/>
<path d="M15870 4530 l0 -90 95 0 c63 0 98 -4 106 -12 6 -7 198 -461 427
-1008 l417 -995 51 -3 52 -3 54 138 c30 76 207 531 393 1010 l340 873 103 0
102 0 0 90 0 90 -375 0 -375 0 0 -90 0 -90 160 0 c88 0 160 -3 160 -7 0 -4
-120 -313 -267 -686 -231 -588 -268 -676 -277 -656 -6 13 -135 320 -287 683
l-276 661 169 3 168 2 0 90 0 90 -470 0 -470 0 0 -90z"/>
<path d="M26910 4530 l0 -89 102 -3 103 -3 387 -925 c214 -509 388 -933 388
-942 0 -23 -102 -258 -153 -350 -64 -119 -163 -252 -261 -355 -101 -107 -163
-156 -300 -237 -53 -32 -96 -61 -96 -64 0 -17 310 -316 318 -307 25 28 166
221 219 300 85 128 184 304 274 490 80 165 102 219 638 1580 l319 810 101 3
101 3 0 89 0 90 -370 0 -370 0 0 -90 0 -90 159 -2 159 -3 -266 -677 c-146
-373 -269 -678 -272 -678 -5 0 -537 1243 -576 1343 -6 16 7 17 165 17 l171 0
0 90 0 90 -470 0 -470 0 0 -90z"/>
<path d="M10517 1610 c-5 -19 -14 -20 -301 -20 l-296 0 0 -35 0 -35 70 0 70 0
0 -370 0 -370 -70 0 -70 0 0 -35 0 -35 215 0 215 0 0 35 0 35 -75 0 -75 0 0
170 0 170 125 0 125 0 0 -50 0 -50 35 0 35 0 0 135 0 135 -35 0 c-35 0 -35 0
-35 -45 l0 -45 -125 0 -126 0 3 158 3 157 155 0 155 0 3 -47 c3 -47 4 -48 38
-48 l34 0 0 105 0 105 -34 0 c-25 0 -35 -5 -39 -20z"/>
<path d="M16157 1610 c-5 -19 -14 -20 -301 -20 l-296 0 0 -35 0 -35 70 0 70 0
0 -370 0 -370 -70 0 -70 0 0 -35 0 -35 340 0 340 0 0 91 0 90 -32 -3 c-32 -3
-33 -4 -36 -55 l-3 -53 -160 0 -159 0 0 170 0 170 119 0 120 0 3 -47 c3 -46 4
-48 36 -51 l32 -3 0 135 0 136 -35 0 c-35 0 -35 0 -35 -45 l0 -45 -120 0 -120
0 0 160 0 160 155 0 155 0 0 -50 0 -50 35 0 35 0 0 105 0 105 -34 0 c-25 0
-35 -5 -39 -20z"/>
<path d="M21027 1610 c-5 -19 -14 -20 -301 -20 l-296 0 0 -35 0 -35 70 0 70 0
0 -370 0 -370 -70 0 -70 0 0 -35 0 -35 340 0 340 0 0 90 0 90 -35 0 -35 0 0
-55 0 -55 -160 0 -160 0 0 170 0 170 120 0 120 0 0 -50 0 -50 35 0 35 0 0 135
0 135 -35 0 c-35 0 -35 0 -35 -45 l0 -45 -120 0 -120 0 0 160 0 161 153 -3
152 -3 3 -47 c3 -47 4 -48 38 -48 l34 0 0 105 0 105 -34 0 c-25 0 -35 -5 -39
-20z"/>
<path d="M24077 1610 c-5 -19 -14 -20 -301 -20 l-296 0 0 -35 0 -35 70 0 70 0
0 -370 0 -370 -70 0 -70 0 0 -35 0 -35 340 0 340 0 0 90 0 90 -35 0 -35 0 0
-55 0 -55 -160 0 -160 0 0 170 0 170 120 0 120 0 0 -50 0 -50 35 0 35 0 0 135
0 135 -35 0 c-35 0 -35 0 -35 -45 l0 -45 -120 0 -120 0 0 160 0 160 155 0 155
0 0 -50 0 -50 35 0 35 0 0 105 0 105 -34 0 c-25 0 -35 -5 -39 -20z"/>
<path d="M9200 1606 c-160 -34 -308 -176 -350 -335 -18 -68 -14 -187 8 -258
67 -213 291 -360 494 -324 381 67 522 540 239 804 -60 56 -149 102 -226 116
-71 13 -94 13 -165 -3z m204 -104 c185 -100 234 -424 94 -620 -38 -52 -119
-106 -173 -115 -120 -20 -236 67 -296 221 -31 77 -33 230 -5 315 27 83 82 156
145 194 83 50 148 51 235 5z"/>
<path d="M11293 1203 l-181 -418 -36 -3 c-34 -3 -36 -5 -36 -38 l0 -34 135 0
135 0 0 35 0 35 -55 0 c-30 0 -55 1 -55 3 0 1 20 47 44 102 l44 100 174 3 174
2 38 -92 c21 -51 40 -99 43 -105 4 -9 -7 -13 -36 -13 -40 0 -41 -1 -41 -35 l0
-35 160 0 160 0 0 35 c0 34 -1 35 -39 35 l-39 0 -56 133 c-31 72 -109 260
-175 417 -114 274 -120 285 -147 288 -29 2 -29 1 -211 -415z m246 22 c34 -82
61 -153 61 -157 0 -5 -61 -8 -135 -8 -92 0 -135 4 -135 11 0 22 134 319 140
312 4 -4 35 -75 69 -158z"/>
<path d="M18177 1610 c-61 -16 -113 -47 -151 -92 -40 -47 -56 -91 -56 -158 1
-101 62 -170 231 -260 159 -84 217 -147 203 -219 -8 -40 -62 -87 -115 -101
-51 -14 -107 -6 -181 27 l-57 25 -3 52 -3 51 -35 0 -35 0 -3 -117 -3 -118 41
0 c33 0 40 3 40 20 0 25 2 25 48 1 130 -66 295 -42 381 55 47 53 66 115 58
193 -10 110 -45 149 -244 267 -154 91 -183 119 -183 171 0 111 125 161 258
103 l52 -22 0 -49 0 -49 35 0 35 0 0 115 0 115 -35 0 c-28 0 -35 -4 -35 -20 0
-24 3 -24 -49 -6 -55 20 -147 27 -194 16z"/>
<path d="M19100 1605 c-203 -46 -343 -191 -370 -382 -33 -239 96 -444 324
-515 125 -39 345 -25 448 28 27 14 28 17 28 99 l0 85 -35 0 c-35 0 -35 0 -35
-46 l0 -45 -67 -31 c-174 -82 -369 -6 -460 180 -37 73 -38 79 -38 181 1 128
23 194 89 268 104 116 267 143 409 69 58 -29 62 -34 65 -69 3 -35 5 -37 38
-37 l34 0 0 115 0 115 -35 0 c-31 0 -35 -3 -35 -25 0 -30 -1 -30 -70 -4 -71
28 -202 34 -290 14z"/>
<path d="M22830 1605 c-228 -51 -370 -226 -370 -456 0 -253 177 -438 445 -464
84 -8 205 7 293 36 l62 21 0 89 0 89 -35 0 -35 0 0 -49 0 -49 -62 -25 c-84
-33 -132 -40 -198 -27 -161 31 -272 151 -301 328 -29 174 53 342 200 410 45
22 71 26 136 27 72 0 88 -4 150 -35 66 -33 70 -37 73 -72 3 -36 5 -38 38 -38
l34 0 0 115 0 115 -35 0 c-31 0 -35 -3 -35 -25 0 -30 -1 -30 -70 -4 -71 28
-202 34 -290 14z"/>
<path d="M24591 1605 c-118 -33 -191 -124 -191 -237 1 -110 58 -176 231 -268
121 -64 185 -118 198 -167 19 -67 -29 -131 -111 -154 -50 -13 -107 -4 -180 28
l-57 25 -3 52 -3 51 -35 0 -35 0 -3 -117 -3 -118 41 0 c33 0 40 3 40 20 0 19
1 19 43 1 107 -46 207 -49 297 -10 119 52 176 181 139 313 -18 64 -84 124
-234 210 -75 44 -147 92 -160 108 -45 53 -26 142 38 174 48 26 134 22 193 -7
47 -23 49 -26 52 -71 3 -47 4 -48 38 -48 l34 0 0 115 0 115 -35 0 c-28 0 -35
-4 -35 -20 0 -24 3 -24 -49 -6 -65 23 -149 28 -210 11z"/>
<path d="M12130 1556 l0 -35 73 -3 72 -3 3 -367 2 -368 -75 0 -75 0 0 -35 0
-35 220 0 220 0 0 35 0 35 -75 0 -75 0 2 368 3 367 86 -1 c102 -1 142 -19 176
-80 27 -46 31 -145 9 -197 -26 -64 -124 -125 -182 -114 -22 4 -24 1 -24 -29
l0 -34 75 0 c185 0 308 111 307 278 0 106 -42 180 -126 225 -39 21 -54 22
-328 25 l-288 3 0 -35z"/>
<path d="M13060 1556 l0 -35 68 -3 67 -3 3 -367 2 -368 -70 0 -70 0 0 -35 0
-35 215 0 215 0 0 35 0 35 -70 0 -70 0 0 370 0 370 63 0 c129 0 195 -43 216
-139 25 -118 -26 -216 -132 -250 -21 -7 -49 -11 -63 -8 -22 4 -24 1 -24 -31
l0 -34 93 4 c110 5 174 33 231 100 89 103 84 272 -11 359 -67 63 -72 64 -380
67 l-283 3 0 -35z"/>
<path d="M14000 1555 l0 -35 70 0 70 0 0 -370 0 -370 -70 0 -70 0 0 -35 0 -35
340 0 340 0 0 95 0 95 -35 0 -34 0 -3 -57 -3 -58 -157 -3 -158 -3 0 371 0 370
70 0 70 0 0 35 0 35 -215 0 -215 0 0 -35z"/>
<path d="M14880 1555 l0 -34 68 -3 67 -3 3 -367 2 -368 -70 0 -70 0 0 -35 0
-35 215 0 215 0 0 35 0 35 -75 0 -75 0 2 368 3 367 73 3 72 3 0 34 0 35 -215
0 -215 0 0 -35z"/>
<path d="M16490 1555 l0 -35 70 0 70 0 0 -370 0 -370 -70 0 -70 0 0 -35 0 -35
263 0 c204 0 276 3 322 15 221 58 356 263 324 491 -23 164 -145 304 -310 355
-53 17 -94 19 -330 19 l-269 0 0 -35z m552 -64 c217 -104 266 -441 90 -614
-68 -67 -122 -87 -247 -94 l-105 -6 0 373 0 373 108 -5 c84 -4 117 -10 154
-27z"/>
<path d="M19740 1555 l0 -34 73 -3 72 -3 3 -367 2 -368 -75 0 -75 0 0 -35 0
-35 220 0 220 0 0 35 0 35 -75 0 -75 0 2 368 3 367 73 3 72 3 0 34 0 35 -220
0 -220 0 0 -35z"/>
<path d="M21330 1555 l0 -35 63 0 c53 0 67 -4 85 -23 22 -23 22 -28 22 -370
l0 -347 -70 0 -70 0 0 -35 0 -35 195 0 195 0 0 35 0 35 -75 0 -75 0 0 281 0
281 276 -324 c231 -269 281 -324 305 -326 l29 -3 2 413 3 413 73 3 72 3 0 34
0 35 -195 0 -195 0 0 -35 0 -34 73 -3 72 -3 3 -269 c2 -267 2 -269 -17 -252
-11 10 -131 148 -268 307 l-248 289 -127 0 -128 0 0 -35z"/>
</g>
</svg>
