<?xml version="1.0" standalone="no"?>
<!DOCTYPE svg PUBLIC "-//W3C//DTD SVG 20010904//EN"
 "http://www.w3.org/TR/2001/REC-SVG-20010904/DTD/svg10.dtd">
<svg version="1.0" xmlns="http://www.w3.org/2000/svg"
 width="981.000000pt" height="688.000000pt" viewBox="0 0 981.000000 688.000000"
 preserveAspectRatio="xMidYMid meet">

<g transform="translate(0.000000,688.000000) scale(0.100000,-0.100000)"
fill="#000000" stroke="none">
<path d="M4735 6794 c-137 -47 -1172 -398 -2300 -780 -1127 -382 -2074 -706
-2103 -720 -96 -47 -143 -109 -128 -169 10 -39 60 -88 118 -118 40 -20 1098
-387 1116 -387 2 0 -30 -37 -72 -82 -279 -299 -397 -636 -413 -1169 l-6 -197
-51 -23 c-28 -13 -78 -52 -112 -85 -145 -144 -181 -356 -94 -540 36 -74 106
-155 166 -190 25 -15 44 -33 44 -43 0 -32 -41 -245 -66 -346 -129 -508 -375
-977 -771 -1469 l-64 -79 98 -72 c188 -138 351 -230 519 -290 l91 -33 83 44
c120 65 194 120 285 215 120 125 191 244 253 419 113 324 134 705 78 1485
l-12 170 58 63 c149 161 178 363 82 555 -15 28 -58 83 -97 121 l-70 69 7 111
c19 310 80 565 182 768 63 125 133 219 240 324 l103 101 213 86 c288 116 1113
450 2033 823 418 169 781 312 806 317 66 15 131 -6 185 -57 96 -92 92 -254 -8
-330 -18 -13 -607 -254 -1308 -535 -701 -280 -1272 -510 -1269 -511 6 0 1970
-666 2287 -775 214 -74 215 -74 341 -30 413 143 2036 702 2861 985 879 301
1541 530 1590 550 98 39 170 106 170 158 0 56 -52 113 -142 155 -29 13 -217
81 -418 150 -201 69 -576 198 -835 287 -1126 388 -2987 1028 -3170 1091 -110
38 -211 69 -225 69 -14 0 -137 -39 -275 -86z"/>
<path d="M6580 3348 c-898 -309 -1519 -518 -1540 -518 -19 0 -80 16 -135 36
-116 41 -940 322 -1450 494 -192 65 -583 197 -868 294 l-517 175 0 -351 0
-350 48 -53 c61 -66 114 -168 143 -270 32 -112 32 -287 1 -398 -25 -88 -64
-169 -115 -241 -30 -42 -34 -53 -26 -75 22 -57 72 -140 102 -169 37 -36 347
-195 526 -271 1183 -496 2600 -561 3921 -179 346 100 707 242 1044 410 155 77
234 142 306 250 74 111 70 62 68 944 l-3 791 -1505 -519z"/>
</g>
</svg>
